<svg xmlns="http://www.w3.org/2000/svg" xmlns:xlink="http://www.w3.org/1999/xlink" width="175" height="42" fill="none" xmlns:v="https://vecta.io/nano"><g clip-path="url(#A)" fill="#fff"><path d="M17.26 41.53c-4.92 0-9.12-.83-12.35-2.88S0 34.21 0 31.65s1.56-4.26 4.26-4.26c1.09 0 2.29.2 3.17.85.92.68 1.6 1.53 2.11 2.57a66.32 66.32 0 0 0 1.62 3.12c.58 1.04 1.37 1.82 2.49 2.52 1.13.7 2.46 1.29 3.99 1.29s2.89-.21 3.91-1.03 1.43-1.92 1.43-3.35-.4-2.63-1.21-3.6-1.86-1.72-3.15-2.25-2.73-1.01-4.3-1.43-3.15-.92-4.73-1.48c-1.58-.57-3.01-1.26-4.3-2.09-1.29-.82-2.35-2.01-3.18-3.57S.87 15.53.87 13.36c0-3.51 1.39-6.37 4.16-8.57 2.78-2.2 6.47-3.3 11.08-3.3s8.37 1 11.51 2.99c3.13 2 4.68 4.28 4.64 6.84 0 1.24-.37 2.22-1.1 2.94s-1.79 1.07-3.18 1.07c-1.24 0-2.29-.36-3.15-1.07a8.02 8.02 0 0 1-2.05-2.55l-1.52-2.99c-.51-1.01-1.2-1.87-2.08-2.58s-1.96-1.07-3.24-1.07c-1.69 0-2.98.45-3.88 1.35s-1.35 2.06-1.35 3.49c0 1.58.4 2.9 1.21 3.98s1.86 1.91 3.15 2.5 2.73 1.11 4.3 1.57c1.58.46 3.14.96 4.7 1.51a23.41 23.41 0 0 1 4.28 2c1.29.79 2.34 1.91 3.15 3.38s1.21 3.24 1.21 5.33c0 3.48-1.49 6.24-4.47 8.29s-6.65 3.08-11 3.08l.02-.02zm47.19-6.48c.07.9.41 1.79 1.03 2.67.61.88.92 1.56.92 2.03v.22c0 .68-.43 1.03-1.3 1.03H54.35c-.86 0-1.3-.34-1.3-1.03v-.22c0-.43.33-1.1 1-2s.98-1.8.95-2.7L54.46 25c-.14-2.49-.5-4.26-1.08-5.32s-1.48-1.59-2.7-1.59c-1.15 0-2.03.47-2.62 1.41s-.89 2.22-.89 3.84v11.78c0 .9.41 1.79 1.22 2.67s1.22 1.54 1.22 1.97v.22c0 .68-.43 1.03-1.3 1.03H36.58c-.83 0-1.24-.34-1.24-1.03v-.22c0-.43.4-1.09 1.19-1.97s1.19-1.77 1.19-2.67V10.03c0-.94-.44-1.78-1.32-2.54s-1.32-1.35-1.32-1.78v-.16c0-.65.41-1.15 1.24-1.51L44.84.25c.61-.29 1.11-.32 1.49-.11.38.22.57.63.57 1.24v15.67c1.62-1.69 3.82-2.54 6.59-2.54s4.97.86 6.92 2.57 3.06 4.46 3.35 8.24l.7 9.73h-.01z"/><use xlink:href="#B"/><path d="M95.9 40.99c-.83 0-1.24-.34-1.24-1.03v-.22c0-.43.35-1.09 1.05-1.97s1.05-1.77 1.05-2.67V10.41c0-.94-.35-1.85-1.05-2.73s-1.05-1.5-1.05-1.86V5.6c0-.4.4-.81 1.19-1.24l8.16-4c.76-.32 1.36-.35 1.81-.08s.68.68.68 1.22v33.6c0 .9.4 1.79 1.19 2.67s1.19 1.54 1.19 1.97v.22c0 .68-.43 1.03-1.3 1.03H95.91h-.01zM130 15.05c.36 0 .66.12.89.35a1.23 1.23 0 0 1 .35.89v1.19c0 .36-.12.66-.35.89s-.53.35-.89.35h-5.94v16.32c0 .94.49 1.85 1.46 2.73s1.46 1.54 1.46 1.97v.22c0 .68-.41 1.03-1.24 1.03h-11.83c-.83 0-1.24-.34-1.24-1.03v-.22c0-.43.36-1.09 1.08-1.97s1.08-1.79 1.08-2.73V18.73h-3.51c-.36 0-.66-.12-.89-.35s-.35-.53-.35-.89V16.3c0-.36.12-.66.35-.89s.53-.35.89-.35h3.51V12.9c0-3.35 1.34-6.09 4.03-8.21 2.68-2.13 6.28-3.19 10.78-3.19 3.96 0 7.08.77 9.35 2.3s3.4 3.41 3.4 5.65c0 .94-.35 1.74-1.05 2.4-.7.67-1.58 1-2.62 1-1.19 0-2.21-.3-3.05-.89-.85-.59-1.5-1.31-1.97-2.16a51.31 51.31 0 0 1-1.32-2.54c-.41-.85-.94-1.57-1.57-2.16s-1.38-.89-2.24-.89c-1.77 0-3.04 1.01-3.81 3.03-.78 2.02-1 4.41-.68 7.19v.65h5.94l-.02-.03zm15.56 19.99c0 .9.41 1.8 1.22 2.7s1.22 1.57 1.22 2v.22c0 .68-.43 1.03-1.3 1.03h-11.73c-.86 0-1.3-.34-1.3-1.03v-.22c0-.43.36-1.1 1.08-2s1.08-1.8 1.08-2.7V24.77c0-.94-.36-1.85-1.08-2.73s-1.08-1.49-1.08-1.81v-.22c0-.43.41-.85 1.24-1.24l8.21-4c.76-.32 1.35-.36 1.78-.11s.65.67.65 1.24v19.13l.01.01zm26.86-2.59c.4-.4.84-.51 1.32-.35s.71.53.68 1.11c-.07 1.8-1.12 3.64-3.13 5.51-2.02 1.87-4.63 2.81-7.84 2.81-3.93 0-7.13-1.26-9.62-3.78s-3.73-5.82-3.73-9.89 1.31-7.09 3.92-9.59 5.74-3.76 9.38-3.76c3.28 0 5.82.76 7.62 2.27s2.7 3.22 2.7 5.13c0 1.51-.7 2.63-2.11 3.35l-10.75 6.05c1.48 2.34 3.53 3.51 6.16 3.51 1.12 0 2.17-.22 3.16-.68.99-.45 1.74-1.02 2.24-1.7v.01zm-10-15.29c-1.08 0-1.95.54-2.62 1.62s-1 2.43-1 4.05c0 2.16.27 4.05.81 5.67l5.03-3.03c.94-.65 1.4-1.57 1.4-2.76s-.3-2.41-.89-3.67-1.5-1.89-2.73-1.89v.01z"/></g><defs><clipPath id="A"><path fill="#fff" d="M0 0h174.42v41.53H0z"/></clipPath><path id="B" d="M90.61 32.45c.4-.4.84-.51 1.32-.35s.71.53.68 1.11c-.07 1.8-1.12 3.64-3.13 5.51-2.02 1.87-4.63 2.81-7.84 2.81-3.93 0-7.13-1.26-9.62-3.78s-3.73-5.82-3.73-9.89 1.31-7.09 3.92-9.59 5.74-3.76 9.38-3.76c3.28 0 5.82.76 7.62 2.27s2.7 3.22 2.7 5.13c0 1.51-.7 2.63-2.11 3.35l-10.75 6.05c1.48 2.34 3.53 3.51 6.16 3.51 1.12 0 2.17-.22 3.16-.68.99-.45 1.74-1.02 2.24-1.7v.01zm-10-15.29c-1.08 0-1.95.54-2.62 1.62s-1 2.43-1 4.05c0 2.16.27 4.05.81 5.67l5.03-3.03c.94-.65 1.4-1.57 1.4-2.76s-.3-2.41-.89-3.67-1.5-1.89-2.73-1.89v.01z"/></defs></svg>